<svg id="Layer_1" data-name="Layer 1" xmlns="http://www.w3.org/2000/svg" viewBox="0 0 300 300"><defs><style>.cls-1{fill:#fbf3f4;}.cls-2{fill:#ce912d;}.cls-3{fill:#fff;}.cls-4{fill:#ff0bd1;}</style></defs><title>Holiday2016_GiftCurator_People</title><rect class="cls-1" x="-3.24" y="-3.24" width="306.49" height="306.49"/><path class="cls-2" d="M152,229.35a81.74,81.74,0,0,1-48.44-15.75,2,2,0,0,1,2.36-3.23,78.38,78.38,0,0,0,94.43-1.71,2,2,0,1,1,2.47,3.15A81.52,81.52,0,0,1,152,229.35Z"/><path class="cls-2" d="M85.18,104.35a2,2,0,0,1-1.66-3.11,82.37,82.37,0,0,1,134.93-2.89,2,2,0,0,1-3.23,2.37,78.37,78.37,0,0,0-128.38,2.75A2,2,0,0,1,85.18,104.35Z"/><line class="cls-3" x1="127.62" y1="56.42" x2="122.92" y2="47.23"/><path class="cls-2" d="M127.62,58.92a2.5,2.5,0,0,1-2.23-1.36l-4.7-9.18a2.5,2.5,0,0,1,4.45-2.28l4.7,9.18A2.5,2.5,0,0,1,127.62,58.92Z"/><line class="cls-3" x1="143.15" y1="53.76" x2="141.62" y2="38.39"/><path class="cls-2" d="M143.14,56.26A2.5,2.5,0,0,1,140.66,54l-1.52-15.37a2.5,2.5,0,1,1,5-.49l1.52,15.37a2.5,2.5,0,0,1-2.24,2.73h-0.25Z"/><line class="cls-3" x1="157.15" y1="53.23" x2="159.64" y2="38.29"/><path class="cls-2" d="M157.15,55.73a2.5,2.5,0,0,1-2.47-2.91l2.49-14.94a2.5,2.5,0,0,1,4.93.82l-2.49,14.94A2.5,2.5,0,0,1,157.15,55.73Z"/><line class="cls-3" x1="171.43" y1="57.17" x2="176.61" y2="46.05"/><path class="cls-2" d="M171.43,59.67a2.5,2.5,0,0,1-2.26-3.56L174.34,45a2.5,2.5,0,0,1,4.53,2.11L173.7,58.22A2.5,2.5,0,0,1,171.43,59.67Z"/><line class="cls-2" x1="77.76" y1="159.09" x2="42.38" y2="163.97"/><path class="cls-4" d="M42.38,166.47a2.5,2.5,0,0,1-.34-5l35.38-4.88a2.5,2.5,0,0,1,.68,5l-35.38,4.88Z"/><line class="cls-2" x1="76.99" y1="142.09" x2="52.67" y2="136.44"/><path class="cls-4" d="M77,144.59a2.53,2.53,0,0,1-.57-0.07l-24.32-5.65A2.5,2.5,0,0,1,53.24,134l24.32,5.65A2.5,2.5,0,0,1,77,144.59Z"/><line class="cls-2" x1="79.95" y1="125.07" x2="67.44" y2="117.22"/><path class="cls-4" d="M79.95,127.57a2.49,2.49,0,0,1-1.33-.38l-12.51-7.85a2.5,2.5,0,1,1,2.66-4.24L81.28,123A2.5,2.5,0,0,1,79.95,127.57Z"/><line class="cls-2" x1="81.17" y1="174.92" x2="56.37" y2="186.95"/><path class="cls-4" d="M56.37,189.45a2.5,2.5,0,0,1-1.09-4.75l24.8-12a2.5,2.5,0,1,1,2.18,4.5l-24.8,12A2.48,2.48,0,0,1,56.37,189.45Z"/><line class="cls-2" x1="88.64" y1="189.72" x2="78.1" y2="200.81"/><path class="cls-4" d="M78.1,203.31a2.5,2.5,0,0,1-1.81-4.22L86.83,188a2.5,2.5,0,0,1,3.63,3.44L79.91,202.53A2.49,2.49,0,0,1,78.1,203.31Z"/><polygon class="cls-3" points="96.13 230.28 108.01 236.64 96.13 242.99 89.63 254.61 83.13 242.99 71.25 236.64 83.13 230.28 89.63 218.67 96.13 230.28"/><path class="cls-2" d="M89.63,256.61a2,2,0,0,1-1.75-1l-6.21-11.11L70.31,238.4a2,2,0,0,1,0-3.53l11.37-6.08,6.21-11.11a2,2,0,0,1,3.49,0l6.21,11.11L109,234.87a2,2,0,0,1,0,3.53l-11.37,6.08-6.21,11.11A2,2,0,0,1,89.63,256.61Zm-14.14-20,8.58,4.59a2,2,0,0,1,.8.79l4.75,8.5,4.75-8.5a2,2,0,0,1,.8-0.79l8.58-4.59L95.19,232a2,2,0,0,1-.8-0.79l-4.75-8.5-4.75,8.5a2,2,0,0,1-.8.79Z"/><polygon class="cls-3" points="215.18 57.16 220.64 60.08 215.18 63 212.19 68.33 209.21 63 203.74 60.08 209.21 57.16 212.19 51.82 215.18 57.16"/><path class="cls-2" d="M212.19,70.33a2,2,0,0,1-1.75-1l-2.7-4.83-4.94-2.64a2,2,0,0,1,0-3.53l4.94-2.64,2.7-4.83a2,2,0,0,1,3.49,0l2.7,4.83,4.94,2.64a2,2,0,0,1,0,3.53l-4.94,2.64-2.7,4.83A2,2,0,0,1,212.19,70.33ZM208,60.08l2.16,1.16a2,2,0,0,1,.8.79l1.24,2.22L213.43,62a2,2,0,0,1,.8-0.79l2.16-1.16-2.16-1.16a2,2,0,0,1-.8-0.79l-1.24-2.22L211,58.13a2,2,0,0,1-.8.79Z"/><line class="cls-3" x1="74.14" y1="60.54" x2="83.25" y2="64.66"/><path class="cls-2" d="M83.25,66.66a2,2,0,0,1-.82-0.18l-9.12-4.12A2,2,0,1,1,75,58.72l9.12,4.12A2,2,0,0,1,83.25,66.66Z"/><line class="cls-3" x1="91.96" y1="68.59" x2="101.07" y2="72.71"/><path class="cls-2" d="M101.07,74.71a2,2,0,0,1-.82-0.18l-9.12-4.12a2,2,0,1,1,1.65-3.64l9.12,4.12A2,2,0,0,1,101.07,74.71Z"/><line class="cls-3" x1="93.69" y1="53.16" x2="89.57" y2="62.28"/><path class="cls-2" d="M89.57,64.28a2,2,0,0,1-1.82-2.82l4.12-9.12A2,2,0,1,1,95.51,54L91.39,63.1A2,2,0,0,1,89.57,64.28Z"/><line class="cls-3" x1="85.64" y1="70.98" x2="81.52" y2="80.1"/><path class="cls-2" d="M81.52,82.1a2,2,0,0,1-1.82-2.82l4.12-9.12a2,2,0,1,1,3.64,1.65l-4.12,9.12A2,2,0,0,1,81.52,82.1Z"/><path class="cls-3" d="M155.71,196.62L195,102c-50.61-24.56-91,0-91,0l39.12,92.76,0.83,1.15c1.09,1.16,2.13,1.53,3,2.87,1.63,2.53,1.52,6.86,1.38,9.8-0.1,2,1,5.07,3.7,4.26,2.5-.76,1.85-5.24,1.85-7.19a25.14,25.14,0,0,1,0-4.83,26.72,26.72,0,0,1,1.39-3.8Z"/><path class="cls-2" d="M151.19,215a4.19,4.19,0,0,1-2.61-.9,6.92,6.92,0,0,1-2.26-5.59c0.1-1.94.32-6.48-1.06-8.61a5.07,5.07,0,0,0-1.26-1.25,12.73,12.73,0,0,1-1.5-1.33l-0.17-.2L141.51,196a2,2,0,0,1-.22-0.39L102.17,102.8a2,2,0,0,1,.8-2.49c0.41-.25,41.88-24.84,92.89-0.09a2,2,0,0,1,1,2.57l-39.28,94.6a2,2,0,0,1-.41.62l-0.12.12c-0.12.29-.24,0.59-0.37,0.89a12.29,12.29,0,0,0-.78,2.19,14.43,14.43,0,0,0-.05,3.17c0,0.48,0,.92,0,1.28s0,0.6,0,1c0.1,2.46.3,7-3.3,8.14A4.87,4.87,0,0,1,151.19,215Zm-5.69-20.34a10.06,10.06,0,0,0,1,.85,8.73,8.73,0,0,1,2.14,2.22c1.83,2.83,1.9,6.95,1.7,11a3.16,3.16,0,0,0,.72,2.24,0.36,0.36,0,0,0,.4,0c0.19-.06.62-0.58,0.47-4.14,0-.42,0-0.81,0-1.13s0-.66,0-1.06a17.33,17.33,0,0,1,.12-4.14,15.23,15.23,0,0,1,1-3c0.16-.38.32-0.76,0.45-1.12a2,2,0,0,1,.44-0.7l0.14-.14,38.4-92.5c-42.92-20-78.27-4-85.86-.11l38.33,90.89ZM155.71,197h0Z"/><path class="cls-2" d="M149.5,152.24a16.13,16.13,0,1,1,16.13-16.13A16.15,16.15,0,0,1,149.5,152.24Zm0-28.25a12.13,12.13,0,1,0,12.13,12.13A12.14,12.14,0,0,0,149.5,124Z"/><path class="cls-2" d="M115.59,132.06A2,2,0,0,1,115,132c-0.56-.18-0.25-0.79-0.47-1.34l-6-15.5c-0.35-.87-1.77-4.06-1-4.59l9.19-3.62a2,2,0,0,1,2.52.21,15.73,15.73,0,0,1-2.56,24.63A2,2,0,0,1,115.59,132.06Zm-6.46-19.56,7.32,14.36a11.66,11.66,0,0,0,3.57-8.43c0-2.67-2-6.88-3.64-8.93Z"/><path class="cls-2" d="M181.33,125.42A18.39,18.39,0,0,1,163,107a18.75,18.75,0,0,1,.18-2.55,2,2,0,0,1,2.63-1.62L191,109.25c0.54,0.19-.72,3-0.5,3.5a2,2,0,0,1-.25,1.63l-3.5,8c-0.23.48,0.84,1.95,0.34,2.12A17.32,17.32,0,0,1,181.33,125.42ZM166.88,106.5c0.25,7.71,6.69,14.92,14.45,14.92A13.51,13.51,0,0,0,185,121l3.73-8.45Z"/><path class="cls-2" d="M157.7,193.38a2,2,0,0,1-1.17-.38,15,15,0,0,1,11.19-26.94,2,2,0,0,1,1.52,2.74l-9.7,23.35A2,2,0,0,1,157.7,193.38Zm6.76-23.49a11,11,0,0,0-7.52,18.1Z"/><path class="cls-2" d="M108.21,114.62a2,2,0,0,1-2-1.8,2.55,2.55,0,0,1,1.29-2.29c7.84-5.91,40.18-18.82,84.41-1.21a2,2,0,1,1-1.48,3.72c-48.85-19.46-78.87-.44-80.63.77a2,2,0,0,1-1.4.79h-0.2Zm2-2.18h0Zm0,0h0Zm0,0h0Z"/><line class="cls-2" x1="222.75" y1="159.09" x2="258.13" y2="163.97"/><path class="cls-4" d="M258.13,166.47l-0.34,0-35.38-4.88a2.5,2.5,0,0,1,.68-5l35.38,4.88A2.5,2.5,0,0,1,258.13,166.47Z"/><line class="cls-2" x1="223.52" y1="142.09" x2="247.83" y2="136.44"/><path class="cls-4" d="M223.52,144.59a2.5,2.5,0,0,1-.56-4.94L247.27,134a2.5,2.5,0,0,1,1.13,4.87l-24.32,5.65A2.53,2.53,0,0,1,223.52,144.59Z"/><line class="cls-2" x1="220.56" y1="125.07" x2="233.07" y2="117.22"/><path class="cls-4" d="M220.56,127.57a2.5,2.5,0,0,1-1.33-4.62l12.51-7.85a2.5,2.5,0,1,1,2.66,4.24l-12.51,7.85A2.49,2.49,0,0,1,220.56,127.57Z"/><line class="cls-2" x1="219.34" y1="174.92" x2="244.14" y2="186.95"/><path class="cls-4" d="M244.13,189.45a2.48,2.48,0,0,1-1.09-.25l-24.8-12a2.5,2.5,0,0,1,2.18-4.5l24.8,12A2.5,2.5,0,0,1,244.13,189.45Z"/><line class="cls-2" x1="211.87" y1="189.72" x2="222.41" y2="200.81"/><path class="cls-4" d="M222.41,203.31a2.49,2.49,0,0,1-1.81-.78l-10.54-11.09a2.5,2.5,0,0,1,3.63-3.44l10.54,11.09A2.5,2.5,0,0,1,222.41,203.31Z"/><circle class="cls-3" cx="203.74" cy="234.47" r="2.17"/><path class="cls-2" d="M203.74,238.64a4.17,4.17,0,1,1,4.17-4.17A4.17,4.17,0,0,1,203.74,238.64Zm0-4.33a0.17,0.17,0,0,0-.17.17c0,0.18.33,0.18,0.33,0A0.17,0.17,0,0,0,203.74,234.31Z"/></svg>