<svg id="Layer_1" data-name="Layer 1" xmlns="http://www.w3.org/2000/svg" viewBox="0 0 300 300"><defs><style>.cls-1{fill:#fbf3f4;}.cls-2{fill:#ce912d;}.cls-3{fill:#fff;}.cls-4{fill:#026664;}.cls-5{fill:#ce912c;}</style></defs><title>Holiday2016_GiftCurator_People</title><rect class="cls-1" x="-3.12" y="-3.12" width="306.49" height="306.49"/><path class="cls-2" d="M88.5,203.72A2,2,0,0,1,87,203a82.47,82.47,0,0,1-13.58-83.29,2,2,0,1,1,3.72,1.47A78.47,78.47,0,0,0,90,200.43,2,2,0,0,1,88.5,203.72Z"/><path class="cls-2" d="M150,232.35a83.45,83.45,0,0,1-11.4-.78,2,2,0,1,1,.55-4,79.34,79.34,0,0,0,10.85.75A78.44,78.44,0,0,0,228.35,150a2,2,0,0,1,4,0A82.45,82.45,0,0,1,150,232.35Z"/><path class="cls-2" d="M113.25,80.53a2,2,0,0,1-.92-3.78A81.44,81.44,0,0,1,150,67.65a82.83,82.83,0,0,1,18.49,2.08,2,2,0,1,1-.89,3.9,78.83,78.83,0,0,0-17.59-2,77.5,77.5,0,0,0-35.84,8.66A2,2,0,0,1,113.25,80.53Z"/><path class="cls-3" d="M182.17,139.44V190a17.62,17.62,0,0,1-3.82,11,21.49,21.49,0,0,1-17.06,7.9H135.41c-10.83,0-16.32-8.16-18.81-13.77a21.57,21.57,0,0,1-1.78-8.76V139.44"/><path class="cls-2" d="M161.3,210.89H135.41c-12.18,0-18.15-9.37-20.63-15a23.46,23.46,0,0,1-2-9.57V139.44a2,2,0,0,1,4,0v46.92a19.47,19.47,0,0,0,1.61,8c2.55,5.74,7.56,12.58,17,12.58H161.3a19.56,19.56,0,0,0,15.48-7.13,15.65,15.65,0,0,0,3.4-9.82V139.44a2,2,0,0,1,4,0V190a19.57,19.57,0,0,1-4.24,12.27A23.58,23.58,0,0,1,161.3,210.89Z"/><path class="cls-3" d="M115.42,139.39a6.93,6.93,0,0,1-6.06-6.85h0a6.93,6.93,0,0,1,6.91-6.91h64.46a6.93,6.93,0,0,1,6.91,6.91h0a6.93,6.93,0,0,1-6.91,6.91"/><path class="cls-2" d="M180.73,141.44a2,2,0,0,1,0-4,4.91,4.91,0,1,0,0-9.81H116.27a4.91,4.91,0,0,0-.6,9.78,2,2,0,0,1-.49,4,8.91,8.91,0,0,1,1.1-17.74h64.46A8.91,8.91,0,1,1,180.73,141.44Z"/><path class="cls-4" d="M226.33,90.71a6.5,6.5,0,1,1,1.86-.27h0A6.47,6.47,0,0,1,226.33,90.71ZM227.48,88h0Zm-1.14-5.33a1.5,1.5,0,1,0,.43,2.93h0A1.5,1.5,0,0,0,227,82.9,1.48,1.48,0,0,0,226.33,82.72Z"/><path class="cls-4" d="M244.73,81.21a2.5,2.5,0,0,1-.72-4.9l19.31-5.78a2.5,2.5,0,0,1,1.43,4.79L245.45,81.1A2.47,2.47,0,0,1,244.73,81.21Z"/><path class="cls-4" d="M198.85,94.95a2.5,2.5,0,0,1-.72-4.9l13.33-4a2.5,2.5,0,0,1,1.43,4.79l-13.33,4A2.47,2.47,0,0,1,198.85,94.95Z"/><path class="cls-4" d="M251.6,100.34a2.48,2.48,0,0,1-1.18-.3l-15.13-8.16a2.5,2.5,0,0,1,2.37-4.4l15.13,8.16A2.5,2.5,0,0,1,251.6,100.34Z"/><path class="cls-4" d="M191.91,68.16a2.51,2.51,0,0,1-1.77-.73,2.24,2.24,0,0,1-.31-0.38,2.4,2.4,0,0,1-.37-0.9,2.43,2.43,0,0,1,0-1,2.83,2.83,0,0,1,.14-0.47,2.62,2.62,0,0,1,.23-0.43,2.18,2.18,0,0,1,.31-0.37,2.35,2.35,0,0,1,.38-0.32,3.65,3.65,0,0,1,.43-0.23,2.58,2.58,0,0,1,.47-0.14,2.66,2.66,0,0,1,1,0,2.48,2.48,0,0,1,.46.14,3.08,3.08,0,0,1,.44.23,2.9,2.9,0,0,1,.37.32,2.29,2.29,0,0,1,.32.37,3.64,3.64,0,0,1,.23.43,2.65,2.65,0,0,1,.14.47,2.39,2.39,0,0,1,0,1,2.46,2.46,0,0,1-.14.47A3.63,3.63,0,0,1,194,67a2.36,2.36,0,0,1-.32.38,2.23,2.23,0,0,1-.37.31,2.27,2.27,0,0,1-.44.23,2.34,2.34,0,0,1-.46.14A2.09,2.09,0,0,1,191.91,68.16Z"/><path class="cls-4" d="M216.59,81.47a2.48,2.48,0,0,1-1.18-.3l-18.74-10.1a2.5,2.5,0,1,1,2.37-4.4l18.74,10.1A2.5,2.5,0,0,1,216.59,81.47Z"/><path class="cls-4" d="M207.93,122.16a2.5,2.5,0,0,1-2.2-3.69L219,93.83a2.5,2.5,0,0,1,4.4,2.37l-13.29,24.65A2.5,2.5,0,0,1,207.93,122.16Z"/><path class="cls-4" d="M237.37,68.84a2.5,2.5,0,0,1-2.2-3.69l6-11.22a2.5,2.5,0,0,1,4.4,2.37l-6,11.22A2.5,2.5,0,0,1,237.37,68.84Z"/><path class="cls-4" d="M234.45,74.26A2.5,2.5,0,0,1,232.68,70a2.85,2.85,0,0,1,.38-0.31,2.54,2.54,0,0,1,.43-0.23,2.5,2.5,0,0,1,.47-0.14,2.5,2.5,0,0,1,2.26,4.22,3.76,3.76,0,0,1-.38.31,3,3,0,0,1-.44.23,2.41,2.41,0,0,1-.46.14A2.68,2.68,0,0,1,234.45,74.26Z"/><path class="cls-4" d="M221.52,70.4a2.5,2.5,0,0,1-2.39-1.78l-7-23.23A2.5,2.5,0,0,1,217,43.95l7,23.23A2.5,2.5,0,0,1,221.52,70.4Z"/><path class="cls-4" d="M230.65,100.89A2.51,2.51,0,1,1,233,97.64v0a2.5,2.5,0,0,1-1.7,3.1A2.53,2.53,0,0,1,230.65,100.89Z"/><path class="cls-4" d="M237.7,124.41a2.5,2.5,0,0,1-2.39-1.78L231.22,109a2.5,2.5,0,0,1,4.79-1.44l4.09,13.64A2.5,2.5,0,0,1,237.7,124.41Z"/><line class="cls-3" x1="90.43" y1="218.55" x2="94.67" y2="220.95"/><path class="cls-2" d="M94.66,223.45a2.49,2.49,0,0,1-1.23-.32l-4.24-2.4a2.5,2.5,0,0,1,2.46-4.35l4.24,2.4A2.5,2.5,0,0,1,94.66,223.45Z"/><line class="cls-3" x1="103.95" y1="226.21" x2="108.19" y2="228.6"/><path class="cls-2" d="M108.19,231.1a2.49,2.49,0,0,1-1.23-.32l-4.24-2.4a2.5,2.5,0,0,1,2.46-4.35l4.24,2.4A2.5,2.5,0,0,1,108.19,231.1Z"/><line class="cls-3" x1="104.72" y1="213.37" x2="102.33" y2="217.71"/><path class="cls-2" d="M102.33,220.21a2.5,2.5,0,0,1-2.19-3.71l2.39-4.34a2.5,2.5,0,0,1,4.38,2.41l-2.39,4.34A2.5,2.5,0,0,1,102.33,220.21Z"/><line class="cls-3" x1="96.46" y1="228.38" x2="94.07" y2="232.72"/><path class="cls-2" d="M94.07,235.22a2.5,2.5,0,0,1-2.19-3.71l2.39-4.34a2.5,2.5,0,0,1,4.38,2.41l-2.39,4.34A2.5,2.5,0,0,1,94.07,235.22Z"/><polygon class="cls-3" points="93.82 92.87 104.19 98.42 93.82 103.96 88.15 114.09 82.49 103.96 72.12 98.42 82.49 92.87 88.15 82.74 93.82 92.87"/><path class="cls-2" d="M88.15,116.09a2,2,0,0,1-1.75-1L81,105.44l-9.85-5.26a2,2,0,0,1,0-3.53L81,91.39l5.38-9.62a2,2,0,0,1,3.49,0l5.38,9.62,9.85,5.27a2,2,0,0,1,0,3.53l-9.85,5.26-5.38,9.62A2,2,0,0,1,88.15,116.09ZM76.36,98.42l7.07,3.78a2,2,0,0,1,.8.79l3.92,7,3.92-7a2,2,0,0,1,.8-0.79l7.07-3.78-7.07-3.78a2,2,0,0,1-.8-0.79l-3.92-7-3.92,7a2,2,0,0,1-.8.79Z"/><path class="cls-3" d="M183.46,150.66a19.4,19.4,0,0,1,0,38.8"/><path class="cls-2" d="M183.46,191.47a2,2,0,0,1,0-4,17.4,17.4,0,0,0,0-34.8,2,2,0,0,1,0-4A21.4,21.4,0,0,1,183.46,191.47Z"/><path class="cls-2" d="M130.35,140.93h-4.6a2,2,0,0,1,0-4h4.6A2,2,0,0,1,130.35,140.93Z"/><path class="cls-2" d="M182.17,140.93H138.77a2,2,0,0,1,0-4h43.41A2,2,0,0,1,182.17,140.93Z"/><path class="cls-3" d="M132.58,94.17c0.81,0.48,4.6,3.31,2.37,6.86s-2.64,7.23.65,9.87"/><path class="cls-2" d="M135.6,112.9a2,2,0,0,1-1.25-.44c-3.79-3-4.19-7.58-1.1-12.49a2,2,0,0,0,.34-1.6,5,5,0,0,0-2-2.47,2,2,0,1,1,2-3.44,9,9,0,0,1,3.88,5,6,6,0,0,1-.84,4.67c-3,4.71-.58,6.61.21,7.24A2,2,0,0,1,135.6,112.9Z"/><path class="cls-3" d="M145.21,94.17c0.81,0.48,4.6,3.31,2.37,6.86s-2.64,7.23.65,9.87"/><path class="cls-2" d="M148.23,112.9a2,2,0,0,1-1.25-.44c-3.79-3-4.19-7.58-1.1-12.49a2,2,0,0,0,.34-1.6,5,5,0,0,0-2-2.47,2,2,0,1,1,2-3.44,9,9,0,0,1,3.88,5,6,6,0,0,1-.84,4.67c-3,4.71-.58,6.61.21,7.24A2,2,0,0,1,148.23,112.9Z"/><path class="cls-3" d="M157.84,94.17c0.81,0.48,4.6,3.31,2.37,6.86s-2.64,7.23.65,9.87"/><path class="cls-2" d="M160.86,112.9a2,2,0,0,1-1.25-.44c-3.79-3-4.19-7.58-1.1-12.49a2,2,0,0,0,.34-1.6,5,5,0,0,0-2-2.47,2,2,0,0,1,2-3.44,9,9,0,0,1,3.88,5,6,6,0,0,1-.84,4.67c-3,4.71-.58,6.61.21,7.24A2,2,0,0,1,160.86,112.9Z"/><circle class="cls-3" cx="218.04" cy="239.5" r="2.12"/><path class="cls-2" d="M218,243.62a4.12,4.12,0,1,1,4.12-4.12A4.12,4.12,0,0,1,218,243.62Zm0-4.24a0.12,0.12,0,0,0-.12.12c0,0.13.24,0.13,0.24,0A0.12,0.12,0,0,0,218,239.38Z"/><circle class="cls-3" cx="92.04" cy="159.02" r="2.12"/><path class="cls-2" d="M92,163.14A4.12,4.12,0,1,1,96.16,159,4.12,4.12,0,0,1,92,163.14Zm0-4.24a0.12,0.12,0,0,0-.12.12c0,0.13.24,0.13,0.24,0A0.12,0.12,0,0,0,92,158.91Z"/><circle class="cls-3" cx="125.74" cy="44.17" r="2.12"/><path class="cls-2" d="M125.74,48.29a4.12,4.12,0,1,1,4.12-4.12A4.12,4.12,0,0,1,125.74,48.29Zm0-4.24a0.12,0.12,0,0,0-.12.12c0,0.13.24,0.13,0.24,0A0.12,0.12,0,0,0,125.74,44.05Z"/><path class="cls-2" d="M151.28,159.56l3.88-4.64,2.74-1,7.2,20.22-3.9,1.39-5.59-15.72-3,3.42Z"/><path class="cls-5" d="M139.67,183.07a1.68,1.68,0,0,1-2.15-1l-6.38-17.93a1.68,1.68,0,1,1,3.17-1.13l6.38,17.93A1.68,1.68,0,0,1,139.67,183.07Z"/><path class="cls-5" d="M146.94,180.48a1.68,1.68,0,0,1-2.15-1l-6.38-17.93a1.68,1.68,0,0,1,3.17-1.13L148,178.33A1.68,1.68,0,0,1,146.94,180.48Z"/><path class="cls-5" d="M147.78,166l-17.93,6.38a1.68,1.68,0,0,1-1.13-3.17l17.93-6.38A1.68,1.68,0,1,1,147.78,166Z"/><path class="cls-5" d="M150.37,173.26l-17.93,6.38a1.68,1.68,0,0,1-1.13-3.17l17.93-6.38A1.68,1.68,0,0,1,150.37,173.26Z"/><path class="cls-2" d="M160.7,201.5a2.5,2.5,0,0,1,0-5A10.34,10.34,0,0,0,171,186.17a2.5,2.5,0,0,1,5,0A15.35,15.35,0,0,1,160.7,201.5Z"/></svg>