<svg id="Layer_1" data-name="Layer 1" xmlns="http://www.w3.org/2000/svg" viewBox="0 0 300 300"><defs><style>.cls-1{fill:#fbf3f4;}.cls-2{fill:#ce912d;}.cls-3{fill:#fff;}.cls-4{fill:#a3d29b;}</style></defs><title>Holiday2016_GiftCurator_People</title><rect class="cls-1" x="-3.24" y="-3.24" width="306.49" height="306.49"/><path class="cls-2" d="M150,232.35A82.37,82.37,0,0,1,79.59,107.26,2,2,0,1,1,83,109.34,78.38,78.38,0,0,0,187.59,218.77a2,2,0,0,1,1.92,3.51A82.45,82.45,0,0,1,150,232.35Z"/><path class="cls-2" d="M122.65,186.72a1.79,1.79,0,0,1-.4,0,1.67,1.67,0,0,1-.37-0.11,1.6,1.6,0,0,1-.34-0.19,1.84,1.84,0,0,1-.31-0.25,2,2,0,0,1-.58-1.41,1.76,1.76,0,0,1,0-.39,1.86,1.86,0,0,1,.11-0.38,2.27,2.27,0,0,1,.18-0.34,2.54,2.54,0,0,1,.25-0.3,1.84,1.84,0,0,1,.31-0.25,2.27,2.27,0,0,1,.34-0.19,1.65,1.65,0,0,1,.38-0.11,2.06,2.06,0,0,1,.78,0,1.57,1.57,0,0,1,.37.11,2.47,2.47,0,0,1,.35.19,1.43,1.43,0,0,1,.3.25,1.8,1.8,0,0,1,.25.3,2.28,2.28,0,0,1,.18.34,2.7,2.7,0,0,1,.12.38,1.7,1.7,0,0,1,0,.39,2,2,0,0,1-.59,1.41,1.77,1.77,0,0,1-.3.25,1.72,1.72,0,0,1-.35.19,1.52,1.52,0,0,1-.37.11A1.71,1.71,0,0,1,122.65,186.72Z"/><path class="cls-2" d="M122.65,198.92a2.08,2.08,0,0,1-.77-0.15,2.13,2.13,0,0,1-.34-0.18,2.49,2.49,0,0,1-.31-0.25,2.17,2.17,0,0,1-.43-0.65,2,2,0,0,1-.15-0.77,2.08,2.08,0,0,1,.15-0.76,2.37,2.37,0,0,1,.18-0.35,2.54,2.54,0,0,1,.25-0.3,2.49,2.49,0,0,1,.31-0.25,2.13,2.13,0,0,1,.34-0.18,2.46,2.46,0,0,1,.38-0.12,2.06,2.06,0,0,1,.78,0,2.43,2.43,0,0,1,.72.3,2.16,2.16,0,0,1,.55.55,2.38,2.38,0,0,1,.18.35,2.58,2.58,0,0,1,.12.37,1.7,1.7,0,0,1,0,.39,2,2,0,0,1-.15.77,2,2,0,0,1-.44.65,2.39,2.39,0,0,1-.3.25,2.32,2.32,0,0,1-.35.18,1.62,1.62,0,0,1-.37.11A1.71,1.71,0,0,1,122.65,198.92Z"/><path class="cls-2" d="M122.65,192.82a1.85,1.85,0,0,1-.4,0,1.78,1.78,0,0,1-.37-0.11,2.21,2.21,0,0,1-.34-0.18,2.5,2.5,0,0,1-.31-0.26,2,2,0,0,1-.58-1.41,1.76,1.76,0,0,1,0-.39,1.62,1.62,0,0,1,.11-0.37,2.32,2.32,0,0,1,.18-0.35,2.46,2.46,0,0,1,.25-0.3,2.32,2.32,0,0,1,.31-0.25,1.56,1.56,0,0,1,.34-0.18,2.46,2.46,0,0,1,.38-0.12,2.06,2.06,0,0,1,.78,0,2.34,2.34,0,0,1,.37.12,1.67,1.67,0,0,1,.35.18,1.72,1.72,0,0,1,.3.25,1.76,1.76,0,0,1,.25.3,2.32,2.32,0,0,1,.18.35,2.24,2.24,0,0,1,.12.37,1.7,1.7,0,0,1,0,.39,2,2,0,0,1-.59,1.41,1.64,1.64,0,0,1-.65.44,1.62,1.62,0,0,1-.37.11A1.77,1.77,0,0,1,122.65,192.82Z"/><path class="cls-2" d="M122.65,205a2.77,2.77,0,0,1-.4,0,2.72,2.72,0,0,1-.37-0.12,2.22,2.22,0,0,1-.34-0.18,2.32,2.32,0,0,1-.31-0.25,2,2,0,0,1-.58-1.41,1.85,1.85,0,0,1,0-.4,1.78,1.78,0,0,1,.11-0.37,1.84,1.84,0,0,1,.18-0.34,2.67,2.67,0,0,1,.25-0.31l0.31-.25a2.21,2.21,0,0,1,.34-0.18,2.46,2.46,0,0,1,.38-0.12,2.06,2.06,0,0,1,.78,0,2.34,2.34,0,0,1,.37.12,2.41,2.41,0,0,1,.35.18,2.46,2.46,0,0,1,.3.25,1.88,1.88,0,0,1,.25.31,1.84,1.84,0,0,1,.18.34,2.58,2.58,0,0,1,.12.37,1.79,1.79,0,0,1,0,.4,2,2,0,0,1-.59,1.41,2.24,2.24,0,0,1-.3.25,2.42,2.42,0,0,1-.35.18,2.34,2.34,0,0,1-.37.12A2.65,2.65,0,0,1,122.65,205Z"/><line class="cls-3" x1="104.07" y1="189.66" x2="113.99" y2="178.29"/><path class="cls-2" d="M104.07,191.66a2,2,0,0,1-1.51-3.31L112.48,177a2,2,0,0,1,3,2.63L105.58,191A2,2,0,0,1,104.07,191.66Z"/><line class="cls-3" x1="100.21" y1="172.25" x2="108.11" y2="171.44"/><path class="cls-2" d="M100.21,174.25a2,2,0,0,1-.2-4l7.9-.81a2,2,0,0,1,.41,4l-7.9.81h-0.21Z"/><path class="cls-2" d="M94.74,174.8a2,2,0,0,1-2-2,1.76,1.76,0,0,1,0-.39,1.62,1.62,0,0,1,.11-0.37,2.37,2.37,0,0,1,.18-0.35,2.54,2.54,0,0,1,.25-0.3,1.93,1.93,0,0,1,.31-0.25A1.78,1.78,0,0,1,94,171a2.46,2.46,0,0,1,.38-0.12,2,2,0,0,1,1.8.55,2,2,0,0,1,.59,1.41A2,2,0,0,1,94.74,174.8Z"/><line class="cls-3" x1="108.81" y1="160.01" x2="109.99" y2="160.66"/><path class="cls-2" d="M110,162.66a2,2,0,0,1-1-.24l-1.18-.64a2,2,0,1,1,1.92-3.51l1.18,0.64A2,2,0,0,1,110,162.66Z"/><line class="cls-3" x1="98.19" y1="154.22" x2="102.05" y2="156.33"/><path class="cls-2" d="M102.05,158.33a2,2,0,0,1-1-.24L97.23,156a2,2,0,1,1,1.92-3.51l3.86,2.11A2,2,0,0,1,102.05,158.33Z"/><path class="cls-2" d="M116.38,142.14a1.74,1.74,0,0,1-.4,0,2.65,2.65,0,0,1-.37-0.11,2.37,2.37,0,0,1-.34-0.19,1.83,1.83,0,0,1-.31-0.25,1.8,1.8,0,0,1-.25-0.3,2.38,2.38,0,0,1-.18-0.35,2.2,2.2,0,0,1-.12-0.37,1.92,1.92,0,0,1,0-.78,2.35,2.35,0,0,1,.12-0.38,2.22,2.22,0,0,1,.18-0.34,3.7,3.7,0,0,1,.25-0.31,2.08,2.08,0,0,1,2.83,0,2.42,2.42,0,0,1,.25.31,2.21,2.21,0,0,1,.18.34,2.46,2.46,0,0,1,.12.38,2.64,2.64,0,0,1,0,.39,2.66,2.66,0,0,1,0,.39,2.3,2.3,0,0,1-.12.37,2.37,2.37,0,0,1-.18.35,1.85,1.85,0,0,1-.25.3,1.49,1.49,0,0,1-.31.25,1.87,1.87,0,0,1-.34.19,2.31,2.31,0,0,1-.37.11A1.7,1.7,0,0,1,116.38,142.14Z"/><line class="cls-3" x1="119.96" y1="153.86" x2="118.07" y2="145.74"/><path class="cls-2" d="M120,155.86a2,2,0,0,1-1.95-1.55l-1.89-8.12a2,2,0,0,1,3.9-.91l1.89,8.12a2,2,0,0,1-1.49,2.4A2,2,0,0,1,120,155.86Z"/><path class="cls-2" d="M140.18,149.87a2,2,0,0,1-2-2,1.71,1.71,0,0,1,0-.39,2.33,2.33,0,0,1,.11-0.38,1.87,1.87,0,0,1,.19-0.34,1.49,1.49,0,0,1,.25-0.31,2.45,2.45,0,0,1,.3-0.25,2.29,2.29,0,0,1,.35-0.18,2.34,2.34,0,0,1,.37-0.12,2.05,2.05,0,0,1,.78,0,2.86,2.86,0,0,1,.38.12,2.22,2.22,0,0,1,.34.18,2.45,2.45,0,0,1,.3.25,1.49,1.49,0,0,1,.25.31,1.39,1.39,0,0,1,.19.34,2.33,2.33,0,0,1,.11.38,1.71,1.71,0,0,1,0,.39A2,2,0,0,1,140.18,149.87Z"/><line class="cls-3" x1="134.47" y1="154.88" x2="137.25" y2="151.47"/><path class="cls-2" d="M134.47,156.88a2,2,0,0,1-1.55-3.26l2.78-3.41a2,2,0,1,1,3.1,2.53L136,156.14A2,2,0,0,1,134.47,156.88Z"/><line class="cls-3" x1="137.52" y1="187.4" x2="130.25" y2="176.93"/><path class="cls-2" d="M137.52,189.4a2,2,0,0,1-1.65-.86l-7.26-10.48a2,2,0,0,1,3.29-2.28l7.26,10.48A2,2,0,0,1,137.52,189.4Z"/><line class="cls-3" x1="143.28" y1="170.42" x2="133.85" y2="168.98"/><path class="cls-2" d="M143.28,172.42l-0.3,0L133.55,171a2,2,0,0,1,.6-4l9.43,1.44A2,2,0,0,1,143.28,172.42Z"/><polygon class="cls-4" points="90.63 59.77 105.52 67.73 90.63 75.69 82.49 90.25 74.34 75.69 59.46 67.73 74.34 59.77 82.49 45.21 90.63 59.77"/><path class="cls-4" d="M82.49,90.75a0.5,0.5,0,0,1-.44-0.26L74,76.06,59.22,68.17a0.5,0.5,0,0,1,0-.88L74,59.4,82.05,45a0.52,0.52,0,0,1,.87,0L91,59.4l14.76,7.89a0.5,0.5,0,0,1,0,.88L91,76.06,82.92,90.49A0.5,0.5,0,0,1,82.49,90.75Zm-22-23,14.06,7.52a0.51,0.51,0,0,1,.2.2l7.71,13.78,7.71-13.78a0.5,0.5,0,0,1,.2-0.2l14.06-7.52L90.39,60.21a0.5,0.5,0,0,1-.2-0.2L82.49,46.24,74.78,60a0.51,0.51,0,0,1-.2.2Z"/><polygon class="cls-4" points="235.24 165.81 243.1 170.02 235.24 174.22 230.94 181.91 226.64 174.22 218.78 170.02 226.64 165.81 230.94 158.13 235.24 165.81"/><path class="cls-4" d="M230.94,182.41a0.5,0.5,0,0,1-.44-0.26l-4.23-7.56-7.73-4.13a0.5,0.5,0,0,1,0-.88l7.73-4.13,4.23-7.56a0.52,0.52,0,0,1,.87,0l4.23,7.56,7.73,4.13a0.5,0.5,0,0,1,0,.88l-7.73,4.13-4.23,7.56A0.5,0.5,0,0,1,230.94,182.41ZM219.84,170l7,3.76a0.51,0.51,0,0,1,.2.2l3.86,6.91L234.8,174a0.51,0.51,0,0,1,.2-0.2l7-3.76-7-3.76a0.51,0.51,0,0,1-.2-0.2l-3.86-6.9-3.86,6.9a0.51,0.51,0,0,1-.2.2Z"/><circle class="cls-3" cx="97.65" cy="114.31" r="2.15"/><path class="cls-2" d="M97.65,118.45a4.15,4.15,0,1,1,4.15-4.15A4.15,4.15,0,0,1,97.65,118.45Zm0-4.29a0.15,0.15,0,0,0-.15.15c0,0.16.29,0.16,0.29,0A0.15,0.15,0,0,0,97.65,114.16Z"/><circle class="cls-3" cx="175.1" cy="102.86" r="12.8"/><path class="cls-2" d="M175.1,117.66a14.8,14.8,0,1,1,14.8-14.8A14.81,14.81,0,0,1,175.1,117.66Zm0-25.59a10.8,10.8,0,1,0,10.8,10.8A10.81,10.81,0,0,0,175.1,92.07Z"/><path class="cls-2" d="M175.1,136a1.79,1.79,0,0,1-.4,0,2.53,2.53,0,0,1-.37-0.11,1.6,1.6,0,0,1-.34-0.19,1.8,1.8,0,0,1-.31-0.25,2,2,0,0,1-.58-1.41,1.7,1.7,0,0,1,0-.39,1.68,1.68,0,0,1,.11-0.38,2.18,2.18,0,0,1,.18-0.34,2.54,2.54,0,0,1,.25-0.3,1.8,1.8,0,0,1,.31-0.25,1.74,1.74,0,0,1,.72-0.3,1.73,1.73,0,0,1,.78,0,1.66,1.66,0,0,1,.37.11,1.7,1.7,0,0,1,.35.19,1.46,1.46,0,0,1,.3.25,1.85,1.85,0,0,1,.25.3,2.18,2.18,0,0,1,.18.34,2.33,2.33,0,0,1,.12.38,2.51,2.51,0,0,1,0,.39,2,2,0,0,1-.59,1.41,1.77,1.77,0,0,1-.3.25,1.7,1.7,0,0,1-.35.19,2.18,2.18,0,0,1-.37.11A1.72,1.72,0,0,1,175.1,136Z"/><path class="cls-2" d="M175.1,151a2.77,2.77,0,0,1-.4,0,2.66,2.66,0,0,1-.37-0.11,2.27,2.27,0,0,1-.34-0.19,1.8,1.8,0,0,1-.31-0.25,2.55,2.55,0,0,1-.25-0.3,2.23,2.23,0,0,1-.18-0.35,1.48,1.48,0,0,1-.11-0.37,2.09,2.09,0,0,1,.11-1.16,1.81,1.81,0,0,1,.18-0.34,2.66,2.66,0,0,1,.25-0.31,2.08,2.08,0,0,1,2.83,0,1.93,1.93,0,0,1,.25.31,1.81,1.81,0,0,1,.18.34,2.36,2.36,0,0,1,.12.38,1.92,1.92,0,0,1,0,.78,2,2,0,0,1-.11.37,2.37,2.37,0,0,1-.19.35,1.46,1.46,0,0,1-.25.3,1.77,1.77,0,0,1-.3.25,2.43,2.43,0,0,1-.35.19,2.27,2.27,0,0,1-.37.11A2.66,2.66,0,0,1,175.1,151Z"/><path class="cls-2" d="M175.1,166a2.75,2.75,0,0,1-.4,0,2.72,2.72,0,0,1-.37-0.12,2.14,2.14,0,0,1-.34-0.18,2.26,2.26,0,0,1-.31-0.25,2,2,0,0,1-.58-1.42,1.7,1.7,0,0,1,0-.39,2,2,0,0,1,.29-0.71,2.67,2.67,0,0,1,.25-0.31l0.31-.25a2.21,2.21,0,0,1,.34-0.18,2.46,2.46,0,0,1,.38-0.12,2.06,2.06,0,0,1,.78,0,2.71,2.71,0,0,1,.37.12,2.37,2.37,0,0,1,.35.18,2.54,2.54,0,0,1,.3.25,1.93,1.93,0,0,1,.25.31,1.78,1.78,0,0,1,.18.34,2.59,2.59,0,0,1,.12.37,2.51,2.51,0,0,1,0,.39,2,2,0,0,1-.59,1.42,2.24,2.24,0,0,1-.3.25,2.43,2.43,0,0,1-.72.3Z"/><path class="cls-2" d="M175.1,181a2.62,2.62,0,0,1-.4,0,2.47,2.47,0,0,1-.37-0.12,2.13,2.13,0,0,1-.34-0.18l-0.31-.25a2,2,0,0,1-.58-1.42,1.7,1.7,0,0,1,0-.39,1.62,1.62,0,0,1,.11-0.37,2.28,2.28,0,0,1,.18-0.35,2.54,2.54,0,0,1,.25-0.3,2.06,2.06,0,0,1,2.83,0,1.85,1.85,0,0,1,.25.3,2.28,2.28,0,0,1,.18.35,2.25,2.25,0,0,1,.12.37,2.51,2.51,0,0,1,0,.39,2,2,0,0,1-.15.77,2,2,0,0,1-.44.65,3.7,3.7,0,0,1-.3.25,2.28,2.28,0,0,1-.35.18,2.12,2.12,0,0,1-.37.12A2.52,2.52,0,0,1,175.1,181Z"/><path class="cls-2" d="M175.1,196a2,2,0,0,1-2-2,1.72,1.72,0,0,1,0-.39,1.7,1.7,0,0,1,.11-0.38,2.17,2.17,0,0,1,.18-0.34,2.54,2.54,0,0,1,.25-0.3,2.06,2.06,0,0,1,2.83,0,1.85,1.85,0,0,1,.25.3,2.17,2.17,0,0,1,.18.34,2.36,2.36,0,0,1,.12.38,2.54,2.54,0,0,1,0,.39,2,2,0,0,1-.59,1.41A2,2,0,0,1,175.1,196Z"/><path class="cls-2" d="M175.1,128.52a2.64,2.64,0,0,1-.4,0,2.47,2.47,0,0,1-.37-0.12,2.13,2.13,0,0,1-.34-0.18,2.42,2.42,0,0,1-.31-0.25,2,2,0,0,1-.43-0.65,2,2,0,0,1-.15-0.76,2,2,0,0,1,.33-1.11,2.59,2.59,0,0,1,.25-0.31l0.31-.25a2.21,2.21,0,0,1,.34-0.18,2.46,2.46,0,0,1,.38-0.12,2.06,2.06,0,0,1,.78,0,2.71,2.71,0,0,1,.37.12,2.37,2.37,0,0,1,.35.18,2.54,2.54,0,0,1,.3.25,1.89,1.89,0,0,1,.25.31,1.78,1.78,0,0,1,.18.34,2.59,2.59,0,0,1,.12.37,2.64,2.64,0,0,1,0,.4,2,2,0,0,1-.15.76,2,2,0,0,1-.44.65,2.39,2.39,0,0,1-.3.25,2.28,2.28,0,0,1-.35.18,2.12,2.12,0,0,1-.37.12A2.54,2.54,0,0,1,175.1,128.52Z"/><path class="cls-2" d="M175.1,143.51a2.64,2.64,0,0,1-.4,0,2.72,2.72,0,0,1-.37-0.12,2.13,2.13,0,0,1-.34-0.18,2.42,2.42,0,0,1-.31-0.25,2,2,0,0,1-.58-1.42,1.72,1.72,0,0,1,0-.39,1.59,1.59,0,0,1,.11-0.37,2.28,2.28,0,0,1,.18-0.35,2.54,2.54,0,0,1,.25-0.3,2.08,2.08,0,0,1,2.83,0,1.85,1.85,0,0,1,.25.3,2.28,2.28,0,0,1,.18.35,2.2,2.2,0,0,1,.12.37,2.54,2.54,0,0,1,0,.39,2,2,0,0,1-.15.77,2,2,0,0,1-.44.65,2.39,2.39,0,0,1-.3.25,2.46,2.46,0,0,1-.72.3A2.54,2.54,0,0,1,175.1,143.51Z"/><path class="cls-2" d="M175.1,158.49a1.85,1.85,0,0,1-.4,0,1.78,1.78,0,0,1-.37-0.11,2.21,2.21,0,0,1-.34-0.18l-0.31-.25a2,2,0,0,1-.58-1.42,2,2,0,0,1,.58-1.41,2.06,2.06,0,0,1,2.83,0,2,2,0,0,1,0,2.83,3.7,3.7,0,0,1-.3.25,2.37,2.37,0,0,1-.35.18,1.59,1.59,0,0,1-.37.11A1.77,1.77,0,0,1,175.1,158.49Z"/><path class="cls-2" d="M175.1,173.48a2.64,2.64,0,0,1-.4,0,2.53,2.53,0,0,1-.37-0.11,1.6,1.6,0,0,1-.34-0.19,1.75,1.75,0,0,1-.31-0.25,2.46,2.46,0,0,1-.25-0.3,2.32,2.32,0,0,1-.18-0.35,1.62,1.62,0,0,1-.11-0.37,2.09,2.09,0,0,1,.11-1.16,2.13,2.13,0,0,1,.18-0.34,3.86,3.86,0,0,1,.25-0.31,2.34,2.34,0,0,1,.31-0.24,1.64,1.64,0,0,1,.34-0.19,1.7,1.7,0,0,1,.38-0.11,1.73,1.73,0,0,1,.78,0,1.77,1.77,0,0,1,.37.11,1.75,1.75,0,0,1,.35.19,1.8,1.8,0,0,1,.3.24,2.49,2.49,0,0,1,.25.31,2.13,2.13,0,0,1,.18.34,2.36,2.36,0,0,1,.12.38,1.92,1.92,0,0,1,0,.78,2.31,2.31,0,0,1-.11.37,2.48,2.48,0,0,1-.19.35,1.43,1.43,0,0,1-.25.3,1.73,1.73,0,0,1-.3.25,1.7,1.7,0,0,1-.35.19,2.18,2.18,0,0,1-.37.11A2.54,2.54,0,0,1,175.1,173.48Z"/><path class="cls-2" d="M175.1,188.47a2.64,2.64,0,0,1-.4,0l-0.37-.11a2.18,2.18,0,0,1-.34-0.19,1.8,1.8,0,0,1-.31-0.25,2,2,0,0,1-.58-1.41,2,2,0,0,1,.58-1.42,2.08,2.08,0,0,1,2.83,0,2,2,0,0,1,.59,1.42,2,2,0,0,1-.59,1.41,1.77,1.77,0,0,1-.3.25,2.34,2.34,0,0,1-.35.19l-0.37.11A2.54,2.54,0,0,1,175.1,188.47Z"/><path class="cls-2" d="M175.1,203.45a1.85,1.85,0,0,1-.4,0,1.78,1.78,0,0,1-.37-0.11,2.21,2.21,0,0,1-.34-0.18,2.42,2.42,0,0,1-.31-0.25,2,2,0,0,1-.58-1.42,1.71,1.71,0,0,1,0-.39,1.78,1.78,0,0,1,.11-0.37,2.27,2.27,0,0,1,.18-0.35,2.46,2.46,0,0,1,.25-0.3,2.34,2.34,0,0,1,.31-0.25,2.22,2.22,0,0,1,.34-0.18,2.35,2.35,0,0,1,.38-0.12,2,2,0,0,1,.78,0,2.57,2.57,0,0,1,.37.12,2.38,2.38,0,0,1,.35.18,2.16,2.16,0,0,1,.55.55,2.27,2.27,0,0,1,.18.35,2.59,2.59,0,0,1,.12.37,2.51,2.51,0,0,1,0,.39,2,2,0,0,1-.59,1.42,1.77,1.77,0,0,1-.65.43,1.59,1.59,0,0,1-.37.11A1.77,1.77,0,0,1,175.1,203.45Z"/><path class="cls-2" d="M175.1,53.67a2,2,0,0,1-2-2V48.57a2,2,0,0,1,4,0v3.11A2,2,0,0,1,175.1,53.67Z"/><path class="cls-2" d="M175.1,77.16a2,2,0,0,1-2-2V57a2,2,0,1,1,4,0V75.16A2,2,0,0,1,175.1,77.16Z"/><line class="cls-3" x1="189.15" y1="69.1" x2="197.11" y2="52.34"/><path class="cls-2" d="M189.14,71.1a2,2,0,0,1-1.81-2.86l8-16.76a2,2,0,1,1,3.61,1.72L191,70A2,2,0,0,1,189.14,71.1Z"/><line class="cls-3" x1="183.87" y1="80.21" x2="186.27" y2="75.16"/><path class="cls-2" d="M183.87,82.21a2,2,0,0,1-1.81-2.86l2.4-5.05A2,2,0,1,1,188.08,76l-2.4,5.05A2,2,0,0,1,183.87,82.21Z"/><path class="cls-2" d="M210.12,69.73a2,2,0,0,1-.76-0.15,2,2,0,0,1-.65-0.44,2.07,2.07,0,0,1-.44-0.65,2,2,0,0,1-.15-0.76,2,2,0,0,1,.59-1.42,2.08,2.08,0,0,1,2.83,0,2,2,0,0,1,.59,1.42,2,2,0,0,1-.16.76,1.89,1.89,0,0,1-.43.65A2,2,0,0,1,210.12,69.73Z"/><line class="cls-3" x1="195.61" y1="82.24" x2="206.25" y2="71.61"/><path class="cls-2" d="M195.61,84.24a2,2,0,0,1-1.41-3.41l10.64-10.64A2,2,0,0,1,207.66,73L197,83.66A2,2,0,0,1,195.61,84.24Z"/><line class="cls-3" x1="207.68" y1="90.99" x2="218.29" y2="87.12"/><path class="cls-2" d="M207.68,93a2,2,0,0,1-.69-3.88l10.61-3.88A2,2,0,1,1,219,89l-10.61,3.88A2,2,0,0,1,207.68,93Z"/><line class="cls-3" x1="197.76" y1="94.62" x2="202.36" y2="92.93"/><path class="cls-2" d="M197.76,96.62a2,2,0,0,1-.69-3.88l4.61-1.68a2,2,0,1,1,1.37,3.76l-4.61,1.68A2,2,0,0,1,197.76,96.62Z"/><path class="cls-2" d="M230,104.19h-12.6a2,2,0,0,1,0-4H230A2,2,0,0,1,230,104.19Z"/><path class="cls-2" d="M211.58,104.19H199.13a2,2,0,0,1,0-4h12.46A2,2,0,0,1,211.58,104.19Z"/><path class="cls-2" d="M223.87,125.91a2,2,0,0,1-.76-0.15,1.9,1.9,0,0,1-.65-0.44,1.37,1.37,0,0,1-.25-0.3,1.67,1.67,0,0,1-.19-0.35,2,2,0,0,1-.11-0.37,1.92,1.92,0,0,1,0-.78,2.33,2.33,0,0,1,.11-0.38,2.24,2.24,0,0,1,.19-0.34,1.37,1.37,0,0,1,.25-0.3,2,2,0,0,1,1.8-.55,1.64,1.64,0,0,1,.38.11,1.6,1.6,0,0,1,.34.19,2.16,2.16,0,0,1,.55.55,1.63,1.63,0,0,1,.19.34,1.7,1.7,0,0,1,.11.38,1.92,1.92,0,0,1,0,.78,1.62,1.62,0,0,1-.11.37,1.67,1.67,0,0,1-.19.35,2.16,2.16,0,0,1-.55.55,1.6,1.6,0,0,1-.34.19,2.43,2.43,0,0,1-.38.11A1.7,1.7,0,0,1,223.87,125.91Z"/><line class="cls-3" x1="199.13" y1="112.49" x2="218.59" y2="121.47"/><path class="cls-2" d="M218.59,123.47a2,2,0,0,1-.84-0.18l-19.46-9a2,2,0,0,1,1.68-3.63l19.46,9A2,2,0,0,1,218.59,123.47Z"/><line class="cls-3" x1="203.13" y1="131.74" x2="213.05" y2="142.13"/><path class="cls-2" d="M213.05,144.13a2,2,0,0,1-1.45-.62l-9.92-10.39a2,2,0,0,1,2.89-2.76l9.92,10.39A2,2,0,0,1,213.05,144.13Z"/><line class="cls-3" x1="191.68" y1="119.74" x2="198.15" y2="126.52"/><path class="cls-2" d="M198.15,128.52a2,2,0,0,1-1.45-.62l-6.47-6.78a2,2,0,0,1,2.89-2.76l6.47,6.78A2,2,0,0,1,198.15,128.52Z"/><line class="cls-3" x1="187.24" y1="135.74" x2="191.2" y2="147.3"/><path class="cls-2" d="M191.2,149.3a2,2,0,0,1-1.89-1.35l-4-11.56a2,2,0,1,1,3.78-1.3l4,11.56A2,2,0,0,1,191.2,149.3Z"/><line class="cls-3" x1="183.63" y1="125.22" x2="185.07" y2="129.41"/><path class="cls-2" d="M185.07,131.41a2,2,0,0,1-1.89-1.35l-1.44-4.19a2,2,0,1,1,3.78-1.3l1.44,4.19A2,2,0,0,1,185.07,131.41Z"/><line class="cls-3" x1="163.81" y1="70.9" x2="156.92" y2="50.9"/><path class="cls-2" d="M163.81,72.9a2,2,0,0,1-1.89-1.35l-6.9-20a2,2,0,1,1,3.78-1.3l6.9,20A2,2,0,0,1,163.81,72.9Z"/><path class="cls-2" d="M166.15,79.69a2,2,0,0,1-1.41-.59,2,2,0,0,1-.59-1.41,2.64,2.64,0,0,1,0-.4,2.72,2.72,0,0,1,.12-0.37,2.29,2.29,0,0,1,.18-0.35,1.76,1.76,0,0,1,.25-0.3,2,2,0,0,1,1.8-.55,2.46,2.46,0,0,1,.38.12,2.26,2.26,0,0,1,.34.18,2.41,2.41,0,0,1,.31.25,2.37,2.37,0,0,1,.25.3,2.29,2.29,0,0,1,.18.35,1.72,1.72,0,0,1,.11.37,1.73,1.73,0,0,1,0,.4,2,2,0,0,1-.58,1.41,2.33,2.33,0,0,1-.31.25,2.27,2.27,0,0,1-.34.18,2.58,2.58,0,0,1-.37.12A2.52,2.52,0,0,1,166.15,79.69Z"/><line class="cls-3" x1="147.29" y1="74.34" x2="137.73" y2="63.4"/><path class="cls-2" d="M147.29,76.33a2,2,0,0,1-1.51-.68l-9.56-10.94a2,2,0,0,1,3-2.63L148.79,73A2,2,0,0,1,147.29,76.33Z"/><line class="cls-3" x1="155.07" y1="83.24" x2="152.04" y2="79.77"/><path class="cls-2" d="M155.07,85.24a2,2,0,0,1-1.51-.68l-3-3.47a2,2,0,0,1,3-2.63l3,3.47A2,2,0,0,1,155.07,85.24Z"/><line class="cls-3" x1="138.91" y1="86.89" x2="125.24" y2="81.21"/><path class="cls-2" d="M138.91,88.89a2,2,0,0,1-.77-0.15l-13.67-5.68A2,2,0,0,1,126,79.36L139.68,85A2,2,0,0,1,138.91,88.89Z"/><line class="cls-3" x1="153.66" y1="93.02" x2="144.11" y2="89.06"/><path class="cls-2" d="M153.66,95a2,2,0,0,1-.77-0.15l-9.55-4a2,2,0,1,1,1.54-3.69l9.55,4A2,2,0,0,1,153.66,95Z"/><path class="cls-2" d="M136.16,104.86h-8.45a2,2,0,0,1,0-4h8.45A2,2,0,0,1,136.16,104.86Z"/><path class="cls-2" d="M142.51,104.86a1.65,1.65,0,0,1-.39,0,1.63,1.63,0,0,1-.38-0.11,2.27,2.27,0,0,1-.34-0.18,2.26,2.26,0,0,1-.56-0.56,2.17,2.17,0,0,1-.18-0.34,1.6,1.6,0,0,1-.11-0.38,1.65,1.65,0,0,1,0-.39,2,2,0,0,1,.58-1.41,2.31,2.31,0,0,1,.31-0.25,2.25,2.25,0,0,1,.34-0.19,2.4,2.4,0,0,1,.38-0.11,2,2,0,0,1,1.8.55,1.81,1.81,0,0,1,.25.3,2.28,2.28,0,0,1,.19.35,2.22,2.22,0,0,1,.11.37,1.7,1.7,0,0,1,0,.39,2,2,0,0,1-.59,1.41,1.87,1.87,0,0,1-.3.26,2.37,2.37,0,0,1-.35.18,1.57,1.57,0,0,1-.37.11A1.7,1.7,0,0,1,142.51,104.86Z"/><line class="cls-3" x1="143.09" y1="113.94" x2="136.73" y2="116.27"/><path class="cls-2" d="M136.73,118.27a2,2,0,0,1-.69-3.88l6.36-2.32a2,2,0,0,1,1.37,3.76l-6.36,2.32A2,2,0,0,1,136.73,118.27Z"/><line class="cls-3" x1="152.89" y1="110.36" x2="148.89" y2="111.83"/><path class="cls-2" d="M148.89,113.83a2,2,0,0,1-.69-3.88l4-1.46a2,2,0,0,1,1.37,3.76l-4,1.46A2,2,0,0,1,148.89,113.83Z"/><line class="cls-3" x1="148.41" y1="129.44" x2="140.16" y2="137.38"/><path class="cls-2" d="M140.16,139.38a2,2,0,0,1-1.39-3.44L147,128a2,2,0,0,1,2.77,2.88l-8.25,7.94A2,2,0,0,1,140.16,139.38Z"/><line class="cls-3" x1="157.6" y1="120.59" x2="153.4" y2="124.64"/><path class="cls-2" d="M153.4,126.64A2,2,0,0,1,152,123.2l4.21-4A2,2,0,1,1,159,122l-4.21,4A2,2,0,0,1,153.4,126.64Z"/><line class="cls-3" x1="157.47" y1="143.52" x2="154.51" y2="150.71"/><path class="cls-2" d="M154.51,152.71a2,2,0,0,1-1.85-2.76l3-7.19a2,2,0,1,1,3.7,1.52l-3,7.19A2,2,0,0,1,154.51,152.71Z"/><line class="cls-3" x1="165.14" y1="124.87" x2="160.24" y2="136.78"/><path class="cls-2" d="M160.24,138.78a2,2,0,0,1-1.85-2.76l4.9-11.91a2,2,0,1,1,3.7,1.52l-4.9,11.91A2,2,0,0,1,160.24,138.78Z"/><circle class="cls-3" cx="121.59" cy="167.34" r="2.15"/><path class="cls-2" d="M121.59,171.48a4.15,4.15,0,1,1,4.15-4.15A4.15,4.15,0,0,1,121.59,171.48Zm0-4.29a0.15,0.15,0,0,0-.15.15c0,0.16.29,0.16,0.29,0A0.15,0.15,0,0,0,121.59,167.19Z"/><line class="cls-3" x1="200.17" y1="202.88" x2="204.92" y2="204.24"/><path class="cls-2" d="M204.92,206.25a2,2,0,0,1-.55-0.08l-4.75-1.36a2,2,0,0,1,1.1-3.85l4.75,1.36A2,2,0,0,1,204.92,206.25Z"/><line class="cls-3" x1="215.33" y1="207.23" x2="220.08" y2="208.59"/><path class="cls-2" d="M220.08,210.59a2,2,0,0,1-.55-0.08l-4.75-1.36a2,2,0,0,1,1.1-3.85l4.75,1.36A2,2,0,0,1,220.08,210.59Z"/><line class="cls-3" x1="213.12" y1="194.63" x2="211.76" y2="199.38"/><path class="cls-2" d="M211.76,201.38a2,2,0,0,1-1.92-2.55l1.36-4.75a2,2,0,1,1,3.85,1.1l-1.36,4.75A2,2,0,0,1,211.76,201.38Z"/><line class="cls-3" x1="208.42" y1="211.03" x2="207.06" y2="215.77"/><path class="cls-2" d="M207.06,217.77a2,2,0,0,1-1.92-2.55l1.36-4.75a2,2,0,0,1,3.85,1.1L209,216.33A2,2,0,0,1,207.06,217.77Z"/></svg>