<svg id="Layer_1" data-name="Layer 1" xmlns="http://www.w3.org/2000/svg" viewBox="0 0 300 300"><defs><style>.cls-1{fill:#fbf3f4;}.cls-2{fill:#ce912d;}.cls-3{fill:#fff;}.cls-4{fill:#ff661a;}</style></defs><title>Holiday2016_GiftCurator_People</title><rect class="cls-1" x="-3.24" y="-3.24" width="306.49" height="306.49"/><path class="cls-2" d="M150,232.35a81.91,81.91,0,0,1-31.13-6.09,2,2,0,1,1,1.51-3.7,78.4,78.4,0,0,0,101.45-103.9,2,2,0,1,1,3.67-1.6A82.4,82.4,0,0,1,150,232.35Z"/><path class="cls-2" d="M126.94,75a2,2,0,0,1-.57-3.92,82.95,82.95,0,0,1,42.4-1.29,2,2,0,0,1-.91,3.9,78.94,78.94,0,0,0-40.35,1.23A2,2,0,0,1,126.94,75Z"/><rect class="cls-3" x="115.07" y="102.31" width="65.82" height="78.11"/><path class="cls-2" d="M180.89,182.41H115.07a2,2,0,0,1-2-2V102.31a2,2,0,0,1,2-2h65.82a2,2,0,0,1,2,2v78.11A2,2,0,0,1,180.89,182.41Zm-63.82-4h61.82V104.31H117.07v74.11Z"/><rect class="cls-3" x="122.49" y="180.41" width="51.17" height="12"/><path class="cls-2" d="M173.66,194.41H122.49a2,2,0,0,1-2-2v-12a2,2,0,0,1,2-2h51.17a2,2,0,0,1,2,2v12A2,2,0,0,1,173.66,194.41Zm-49.17-4h47.17v-8H124.49v8Z"/><rect class="cls-1" x="125.53" y="112.09" width="45.09" height="38.58"/><path class="cls-2" d="M172.62,152.67H123.53V110.09h49.09v42.58Zm-45.09-4h41.09V114.09H127.53v34.58Z"/><circle class="cls-3" cx="126.94" cy="166.03" r="2.98"/><path class="cls-2" d="M126.94,171a5,5,0,1,1,5-5A5,5,0,0,1,126.94,171Zm0-6a1,1,0,1,0,1,1A1,1,0,0,0,126.94,165.05Z"/><path class="cls-2" d="M163.83,168H145.48a2,2,0,1,1,0-4h18.36A2,2,0,0,1,163.83,168Z"/><rect class="cls-3" x="163.83" y="161.95" width="8.07" height="8.07"/><path class="cls-2" d="M171.9,172h-8.06a2,2,0,0,1-2-2V162a2,2,0,0,1,2-2h8.06a2,2,0,0,1,2,2V170A2,2,0,0,1,171.9,172Zm-6.06-4h4.06V164h-4.06V168Z"/><rect class="cls-2" x="139.27" y="138.41" width="2.73" height="2.73"/><rect class="cls-2" x="144.69" y="133.34" width="2.73" height="2.73"/><rect class="cls-2" x="141.31" y="140.27" width="13.91" height="2.73"/><rect class="cls-2" x="135.79" y="122.71" width="6.96" height="2.73" transform="translate(263.34 -15.19) rotate(90)"/><rect class="cls-2" x="154.05" y="122.71" width="6.96" height="2.73" transform="translate(315.06 248.15) rotate(180)"/><rect class="cls-2" x="143.88" y="130" width="9.4" height="2.73" transform="translate(279.95 -17.22) rotate(90)"/><rect class="cls-2" x="154.47" y="138.41" width="2.73" height="2.73"/><line class="cls-3" x1="75.28" y1="59.18" x2="86.8" y2="71.43"/><path class="cls-2" d="M86.8,73.43a2,2,0,0,1-1.46-.63L73.82,60.55a2,2,0,1,1,2.91-2.74L88.26,70.05A2,2,0,0,1,86.8,73.43Z"/><line class="cls-3" x1="101.95" y1="47.88" x2="102.28" y2="64.69"/><path class="cls-2" d="M102.28,66.69a2,2,0,0,1-2-2L100,47.92a2,2,0,0,1,2-2,2,2,0,0,1,2,2l0.33,16.81a2,2,0,0,1-2,2h0Z"/><line class="cls-3" x1="61.75" y1="84.22" x2="78.39" y2="86.58"/><path class="cls-2" d="M78.4,88.58l-0.28,0L61.46,86.2a2,2,0,0,1,.56-4L78.67,84.6A2,2,0,0,1,78.4,88.58Z"/><circle class="cls-4" cx="190.49" cy="45.1" r="3.98"/><circle class="cls-4" cx="235.29" cy="91.64" r="3.98"/><polygon class="cls-3" points="213.76 51.21 217.54 65.19 231.21 70 219.08 77.93 218.73 92.41 207.44 83.32 193.56 87.46 198.72 73.92 190.49 61.99 204.96 62.72 213.76 51.21"/><path class="cls-2" d="M218.73,94.41a2,2,0,0,1-1.25-.44L207,85.54l-12.88,3.84a2,2,0,0,1-2.44-2.63l4.79-12.56-7.63-11.06a2,2,0,0,1-.1-2.11,2,2,0,0,1,1.85-1L204,60.67,212.17,50a2,2,0,0,1,3.52.69l3.51,13,12.68,4.46a2,2,0,0,1,.43,3.56L221.05,79l-0.33,13.44A2,2,0,0,1,218.73,94.41ZM207.44,81.32a2,2,0,0,1,1.25.44l8.13,6.55,0.25-10.43a2,2,0,0,1,.91-1.63l8.74-5.71-9.85-3.47a2,2,0,0,1-1.27-1.36l-2.73-10.08-6.34,8.29a2,2,0,0,1-1.69.78l-10.43-.52,5.93,8.59a2,2,0,0,1,.22,1.85l-3.72,9.75,10-3A2,2,0,0,1,207.44,81.32Z"/><polygon class="cls-4" points="96.27 197.02 109.65 204.17 96.27 211.33 88.95 224.41 81.64 211.33 68.26 204.17 81.64 197.02 88.95 183.94 96.27 197.02"/><polygon class="cls-3" points="228.86 221.71 234.61 224.78 228.86 227.86 225.71 233.48 222.56 227.86 216.81 224.78 222.56 221.71 225.71 216.09 228.86 221.71"/><path class="cls-2" d="M225.71,235.48a2,2,0,0,1-1.75-1l-2.86-5.11-5.24-2.8a2,2,0,0,1,0-3.53l5.24-2.8,2.86-5.11a2,2,0,0,1,3.49,0l2.86,5.11,5.24,2.8a2,2,0,0,1,0,3.53l-5.24,2.8-2.86,5.11A2,2,0,0,1,225.71,235.48Zm-4.66-10.7,2.45,1.31a2,2,0,0,1,.8.79l1.4,2.5,1.4-2.5a2,2,0,0,1,.8-0.79l2.45-1.31-2.45-1.31a2,2,0,0,1-.8-0.79l-1.4-2.5-1.4,2.5a2,2,0,0,1-.8.79Z"/><line class="cls-3" x1="198.48" y1="134.71" x2="203.23" y2="136.07"/><path class="cls-2" d="M203.23,138.07a2,2,0,0,1-.55-0.08l-4.75-1.36a2,2,0,1,1,1.1-3.85l4.75,1.36A2,2,0,0,1,203.23,138.07Z"/><line class="cls-3" x1="213.64" y1="139.06" x2="218.39" y2="140.42"/><path class="cls-2" d="M218.39,142.42a2,2,0,0,1-.55-0.08L213.09,141a2,2,0,1,1,1.1-3.85l4.75,1.36A2,2,0,0,1,218.39,142.42Z"/><line class="cls-3" x1="211.43" y1="126.46" x2="210.07" y2="131.2"/><path class="cls-2" d="M210.07,133.2a2,2,0,0,1-1.92-2.55l1.36-4.75a2,2,0,0,1,3.85,1.1L212,131.75A2,2,0,0,1,210.07,133.2Z"/><line class="cls-3" x1="206.73" y1="142.85" x2="205.37" y2="147.6"/><path class="cls-2" d="M205.37,149.6a2,2,0,0,1-1.92-2.55l1.36-4.75a2,2,0,0,1,3.85,1.1l-1.36,4.75A2,2,0,0,1,205.37,149.6Z"/><line class="cls-3" x1="54.77" y1="168.1" x2="54.8" y2="168.06"/><path class="cls-2" d="M54.77,172.07a4,4,0,0,1-3.18-6.4l0,0A4,4,0,1,1,54.77,172.07Z"/><line class="cls-3" x1="51.97" y1="146.72" x2="52" y2="146.68"/><path class="cls-2" d="M52,150.69a4,4,0,0,1-3.18-6.4l0,0A4,4,0,1,1,52,150.69Z"/><line class="cls-3" x1="55.41" y1="126.23" x2="55.43" y2="126.28"/><path class="cls-2" d="M55.44,130.28A4,4,0,1,1,58.75,124l0,0A4,4,0,0,1,55.44,130.28Z"/><circle class="cls-3" cx="95.33" cy="143" r="0.91"/><path class="cls-2" d="M95.33,147.91a4.91,4.91,0,1,1,4.91-4.91A4.91,4.91,0,0,1,95.33,147.91Z"/><path class="cls-2" d="M170.32,211.91a4,4,0,0,1-2.83-6.83,4.21,4.21,0,0,1,.61-0.5,4.54,4.54,0,0,1,.69-0.37,4.89,4.89,0,0,1,.75-0.23,4.11,4.11,0,0,1,1.56,0,4.57,4.57,0,0,1,.75.23,4.16,4.16,0,0,1,.69.37,3.79,3.79,0,0,1,.61.5,4.38,4.38,0,0,1,.5.61,4.21,4.21,0,0,1,.37.69,3.79,3.79,0,0,1,.22.75,3.41,3.41,0,0,1,.08.78A4,4,0,0,1,170.32,211.91Z"/><path class="cls-2" d="M144,211.91a4,4,0,0,1-2.83-6.83,4.21,4.21,0,0,1,.61-0.5,4.54,4.54,0,0,1,.69-0.37,4.89,4.89,0,0,1,.75-0.23,4.11,4.11,0,0,1,1.56,0,4.57,4.57,0,0,1,.75.23,4.16,4.16,0,0,1,.69.37,3.79,3.79,0,0,1,.61.5,4.38,4.38,0,0,1,.5.61,4.21,4.21,0,0,1,.37.69,3.79,3.79,0,0,1,.22.75,3.41,3.41,0,0,1,.08.78A4,4,0,0,1,144,211.91Z"/><path class="cls-2" d="M157.15,207.9h0"/><path class="cls-2" d="M157.15,211.91a4,4,0,1,1,3.84-5.14h0A4,4,0,0,1,157.15,211.91Z"/></svg>